<svg xmlns="http://www.w3.org/2000/svg" viewBox="0 -120 300 400" width="300" height="400"><rect x="87.1" y="52.0" width="8" height="4" rx="1" fill="#F590B4" transform="rotate(20 91.1 54.0)"/><rect x="202.9" y="46.0" width="8" height="4" rx="1" fill="#7FBCF5" transform="rotate(-25 206.9 48.0)"/><rect x="136.0" y="30.0" width="8" height="4" rx="1" fill="#86D9B0" transform="rotate(35 140.0 32.0)"/><rect x="168.0" y="34.0" width="8" height="4" rx="1" fill="#FFCF5C" transform="rotate(10 172.0 36.0)"/><rect x="107.1" y="36.0" width="8" height="4" rx="1" fill="#C8A8FF" transform="rotate(-15 111.1 38.0)"/><polygon points="107.1,94.0 107.1,64.0 128.6,80.0 150.0,56.0 171.4,80.0 192.9,64.0 192.9,94.0" fill="#FFCF5C" stroke="#6B4A3A" stroke-width="4" stroke-linejoin="round"/><rect x="107.1" y="84.0" width="85.8" height="10" fill="#F590B4" stroke="#6B4A3A" stroke-width="3"/><circle cx="124.3" cy="89.0" r="3.5" fill="#7FBCF5" stroke="#6B4A3A" stroke-width="1.5"/><circle cx="150.0" cy="89.0" r="3.5" fill="#86D9B0" stroke="#6B4A3A" stroke-width="1.5"/><circle cx="175.7" cy="89.0" r="3.5" fill="#C8A8FF" stroke="#6B4A3A" stroke-width="1.5"/></svg>