<svg xmlns="http://www.w3.org/2000/svg" viewBox="0 -120 300 400" width="300" height="400"><ellipse cx="137.8" cy="224.0" rx="6" ry="4.5" transform="rotate(0 137.8 224.0)" fill="#F7A8C4" stroke="#6B4A3A" stroke-width="2"/><ellipse cx="133.7" cy="229.7" rx="6" ry="4.5" transform="rotate(72 133.7 229.7)" fill="#F7A8C4" stroke="#6B4A3A" stroke-width="2"/><ellipse cx="127.0" cy="227.5" rx="6" ry="4.5" transform="rotate(144 127.0 227.5)" fill="#F7A8C4" stroke="#6B4A3A" stroke-width="2"/><ellipse cx="127.0" cy="220.5" rx="6" ry="4.5" transform="rotate(216 127.0 220.5)" fill="#F7A8C4" stroke="#6B4A3A" stroke-width="2"/><ellipse cx="133.7" cy="218.3" rx="6" ry="4.5" transform="rotate(288 133.7 218.3)" fill="#F7A8C4" stroke="#6B4A3A" stroke-width="2"/><circle cx="131.8" cy="224.0" r="2.6" fill="#F59A4A"/><ellipse cx="144.5" cy="232.7" rx="6" ry="4.5" transform="rotate(0 144.5 232.7)" fill="#FFD84D" stroke="#6B4A3A" stroke-width="2"/><ellipse cx="140.4" cy="238.4" rx="6" ry="4.5" transform="rotate(72 140.4 238.4)" fill="#FFD84D" stroke="#6B4A3A" stroke-width="2"/><ellipse cx="133.7" cy="236.2" rx="6" ry="4.5" transform="rotate(144 133.7 236.2)" fill="#FFD84D" stroke="#6B4A3A" stroke-width="2"/><ellipse cx="133.7" cy="229.2" rx="6" ry="4.5" transform="rotate(216 133.7 229.2)" fill="#FFD84D" stroke="#6B4A3A" stroke-width="2"/><ellipse cx="140.4" cy="227.0" rx="6" ry="4.5" transform="rotate(288 140.4 227.0)" fill="#FFD84D" stroke="#6B4A3A" stroke-width="2"/><circle cx="138.5" cy="232.7" r="2.6" fill="#F59A4A"/><ellipse cx="151.2" cy="239.2" rx="6" ry="4.5" transform="rotate(0 151.2 239.2)" fill="#FFFFFF" stroke="#6B4A3A" stroke-width="2"/><ellipse cx="147.1" cy="244.9" rx="6" ry="4.5" transform="rotate(72 147.1 244.9)" fill="#FFFFFF" stroke="#6B4A3A" stroke-width="2"/><ellipse cx="140.4" cy="242.7" rx="6" ry="4.5" transform="rotate(144 140.4 242.7)" fill="#FFFFFF" stroke="#6B4A3A" stroke-width="2"/><ellipse cx="140.4" cy="235.7" rx="6" ry="4.5" transform="rotate(216 140.4 235.7)" fill="#FFFFFF" stroke="#6B4A3A" stroke-width="2"/><ellipse cx="147.1" cy="233.5" rx="6" ry="4.5" transform="rotate(288 147.1 233.5)" fill="#FFFFFF" stroke="#6B4A3A" stroke-width="2"/><circle cx="145.2" cy="239.2" r="2.6" fill="#F59A4A"/><ellipse cx="157.9" cy="243.6" rx="6" ry="4.5" transform="rotate(0 157.9 243.6)" fill="#F59A4A" stroke="#6B4A3A" stroke-width="2"/><ellipse cx="153.8" cy="249.3" rx="6" ry="4.5" transform="rotate(72 153.8 249.3)" fill="#F59A4A" stroke="#6B4A3A" stroke-width="2"/><ellipse cx="147.1" cy="247.1" rx="6" ry="4.5" transform="rotate(144 147.1 247.1)" fill="#F59A4A" stroke="#6B4A3A" stroke-width="2"/><ellipse cx="147.1" cy="240.0" rx="6" ry="4.5" transform="rotate(216 147.1 240.0)" fill="#F59A4A" stroke="#6B4A3A" stroke-width="2"/><ellipse cx="153.8" cy="237.8" rx="6" ry="4.5" transform="rotate(288 153.8 237.8)" fill="#F59A4A" stroke="#6B4A3A" stroke-width="2"/><circle cx="151.9" cy="243.6" r="2.6" fill="#F59A4A"/><ellipse cx="164.6" cy="245.7" rx="6" ry="4.5" transform="rotate(0 164.6 245.7)" fill="#C8A8FF" stroke="#6B4A3A" stroke-width="2"/><ellipse cx="160.5" cy="251.4" rx="6" ry="4.5" transform="rotate(72 160.5 251.4)" fill="#C8A8FF" stroke="#6B4A3A" stroke-width="2"/><ellipse cx="153.8" cy="249.3" rx="6" ry="4.5" transform="rotate(144 153.8 249.3)" fill="#C8A8FF" stroke="#6B4A3A" stroke-width="2"/><ellipse cx="153.8" cy="242.2" rx="6" ry="4.5" transform="rotate(216 153.8 242.2)" fill="#C8A8FF" stroke="#6B4A3A" stroke-width="2"/><ellipse cx="160.5" cy="240.0" rx="6" ry="4.5" transform="rotate(288 160.5 240.0)" fill="#C8A8FF" stroke="#6B4A3A" stroke-width="2"/><circle cx="158.6" cy="245.7" r="2.6" fill="#F59A4A"/><ellipse cx="171.4" cy="245.7" rx="6" ry="4.5" transform="rotate(0 171.4 245.7)" fill="#F7A8C4" stroke="#6B4A3A" stroke-width="2"/><ellipse cx="167.2" cy="251.4" rx="6" ry="4.5" transform="rotate(72 167.2 251.4)" fill="#F7A8C4" stroke="#6B4A3A" stroke-width="2"/><ellipse cx="160.5" cy="249.3" rx="6" ry="4.5" transform="rotate(144 160.5 249.3)" fill="#F7A8C4" stroke="#6B4A3A" stroke-width="2"/><ellipse cx="160.5" cy="242.2" rx="6" ry="4.5" transform="rotate(216 160.5 242.2)" fill="#F7A8C4" stroke="#6B4A3A" stroke-width="2"/><ellipse cx="167.2" cy="240.0" rx="6" ry="4.5" transform="rotate(288 167.2 240.0)" fill="#F7A8C4" stroke="#6B4A3A" stroke-width="2"/><circle cx="165.4" cy="245.7" r="2.6" fill="#F59A4A"/><ellipse cx="178.1" cy="243.6" rx="6" ry="4.5" transform="rotate(0 178.1 243.6)" fill="#FFD84D" stroke="#6B4A3A" stroke-width="2"/><ellipse cx="173.9" cy="249.3" rx="6" ry="4.5" transform="rotate(72 173.9 249.3)" fill="#FFD84D" stroke="#6B4A3A" stroke-width="2"/><ellipse cx="167.2" cy="247.1" rx="6" ry="4.5" transform="rotate(144 167.2 247.1)" fill="#FFD84D" stroke="#6B4A3A" stroke-width="2"/><ellipse cx="167.2" cy="240.0" rx="6" ry="4.5" transform="rotate(216 167.2 240.0)" fill="#FFD84D" stroke="#6B4A3A" stroke-width="2"/><ellipse cx="173.9" cy="237.8" rx="6" ry="4.5" transform="rotate(288 173.9 237.8)" fill="#FFD84D" stroke="#6B4A3A" stroke-width="2"/><circle cx="172.1" cy="243.6" r="2.6" fill="#F59A4A"/><ellipse cx="184.8" cy="239.2" rx="6" ry="4.5" transform="rotate(0 184.8 239.2)" fill="#FFFFFF" stroke="#6B4A3A" stroke-width="2"/><ellipse cx="180.6" cy="244.9" rx="6" ry="4.5" transform="rotate(72 180.6 244.9)" fill="#FFFFFF" stroke="#6B4A3A" stroke-width="2"/><ellipse cx="173.9" cy="242.7" rx="6" ry="4.5" transform="rotate(144 173.9 242.7)" fill="#FFFFFF" stroke="#6B4A3A" stroke-width="2"/><ellipse cx="173.9" cy="235.7" rx="6" ry="4.5" transform="rotate(216 173.9 235.7)" fill="#FFFFFF" stroke="#6B4A3A" stroke-width="2"/><ellipse cx="180.6" cy="233.5" rx="6" ry="4.5" transform="rotate(288 180.6 233.5)" fill="#FFFFFF" stroke="#6B4A3A" stroke-width="2"/><circle cx="178.8" cy="239.2" r="2.6" fill="#F59A4A"/><ellipse cx="191.5" cy="232.7" rx="6" ry="4.5" transform="rotate(0 191.5 232.7)" fill="#F59A4A" stroke="#6B4A3A" stroke-width="2"/><ellipse cx="187.3" cy="238.4" rx="6" ry="4.5" transform="rotate(72 187.3 238.4)" fill="#F59A4A" stroke="#6B4A3A" stroke-width="2"/><ellipse cx="180.6" cy="236.2" rx="6" ry="4.5" transform="rotate(144 180.6 236.2)" fill="#F59A4A" stroke="#6B4A3A" stroke-width="2"/><ellipse cx="180.6" cy="229.2" rx="6" ry="4.5" transform="rotate(216 180.6 229.2)" fill="#F59A4A" stroke="#6B4A3A" stroke-width="2"/><ellipse cx="187.3" cy="227.0" rx="6" ry="4.5" transform="rotate(288 187.3 227.0)" fill="#F59A4A" stroke="#6B4A3A" stroke-width="2"/><circle cx="185.5" cy="232.7" r="2.6" fill="#F59A4A"/><ellipse cx="198.2" cy="224.0" rx="6" ry="4.5" transform="rotate(0 198.2 224.0)" fill="#C8A8FF" stroke="#6B4A3A" stroke-width="2"/><ellipse cx="194.0" cy="229.7" rx="6" ry="4.5" transform="rotate(72 194.0 229.7)" fill="#C8A8FF" stroke="#6B4A3A" stroke-width="2"/><ellipse cx="187.3" cy="227.5" rx="6" ry="4.5" transform="rotate(144 187.3 227.5)" fill="#C8A8FF" stroke="#6B4A3A" stroke-width="2"/><ellipse cx="187.3" cy="220.5" rx="6" ry="4.5" transform="rotate(216 187.3 220.5)" fill="#C8A8FF" stroke="#6B4A3A" stroke-width="2"/><ellipse cx="194.0" cy="218.3" rx="6" ry="4.5" transform="rotate(288 194.0 218.3)" fill="#C8A8FF" stroke="#6B4A3A" stroke-width="2"/><circle cx="192.2" cy="224.0" r="2.6" fill="#F59A4A"/></svg>