<svg xmlns="http://www.w3.org/2000/svg" viewBox="0 -120 300 400" width="300" height="400"><path d="M62.0 156.0 q -6.0 30 6.0 52" stroke="#6B4A3A" stroke-width="10" fill="none" stroke-linecap="round"/><path d="M62.0 156.0 q -6.0 30 6.0 52" stroke="#F7A8C4" stroke-width="5" fill="none" stroke-linecap="round"/><path d="M238.0 156.0 q 6.0 30 -6.0 52" stroke="#6B4A3A" stroke-width="10" fill="none" stroke-linecap="round"/><path d="M238.0 156.0 q 6.0 30 -6.0 52" stroke="#F7A8C4" stroke-width="5" fill="none" stroke-linecap="round"/><path d="M62.0 156.0 C 62.0 54.0 238.0 54.0 238.0 156.0 Q 150.0 96.4 62.0 156.0 Z" fill="#FFF0C2" stroke="#6B4A3A" stroke-width="4" stroke-linejoin="round"/><path d="M88.4 109.0 l 0 12" stroke="#E2C27A" stroke-width="3" stroke-linecap="round"/><path d="M119.2 85.1 l 0 12" stroke="#E2C27A" stroke-width="3" stroke-linecap="round"/><path d="M150.0 77.2 l 0 12" stroke="#E2C27A" stroke-width="3" stroke-linecap="round"/><path d="M180.8 85.1 l 0 12" stroke="#E2C27A" stroke-width="3" stroke-linecap="round"/><path d="M211.6 109.0 l 0 12" stroke="#E2C27A" stroke-width="3" stroke-linecap="round"/><circle cx="116.4" cy="88.6" r="5.5" fill="#F7A8C4" stroke="#6B4A3A" stroke-width="2"/><circle cx="112.3" cy="94.3" r="5.5" fill="#F7A8C4" stroke="#6B4A3A" stroke-width="2"/><circle cx="105.5" cy="92.1" r="5.5" fill="#F7A8C4" stroke="#6B4A3A" stroke-width="2"/><circle cx="105.5" cy="85.1" r="5.5" fill="#F7A8C4" stroke="#6B4A3A" stroke-width="2"/><circle cx="112.3" cy="82.9" r="5.5" fill="#F7A8C4" stroke="#6B4A3A" stroke-width="2"/><circle cx="110.4" cy="88.6" r="3.5" fill="#FFD84D"/><circle cx="138.4" cy="78.6" r="5.5" fill="#FFFFFF" stroke="#6B4A3A" stroke-width="2"/><circle cx="134.3" cy="84.3" r="5.5" fill="#FFFFFF" stroke="#6B4A3A" stroke-width="2"/><circle cx="127.5" cy="82.1" r="5.5" fill="#FFFFFF" stroke="#6B4A3A" stroke-width="2"/><circle cx="127.5" cy="75.0" r="5.5" fill="#FFFFFF" stroke="#6B4A3A" stroke-width="2"/><circle cx="134.3" cy="72.9" r="5.5" fill="#FFFFFF" stroke="#6B4A3A" stroke-width="2"/><circle cx="132.4" cy="78.6" r="3.5" fill="#FFD84D"/><circle cx="160.4" cy="76.2" r="5.5" fill="#C8A8FF" stroke="#6B4A3A" stroke-width="2"/><circle cx="156.3" cy="81.9" r="5.5" fill="#C8A8FF" stroke="#6B4A3A" stroke-width="2"/><circle cx="149.5" cy="79.8" r="5.5" fill="#C8A8FF" stroke="#6B4A3A" stroke-width="2"/><circle cx="149.5" cy="72.7" r="5.5" fill="#C8A8FF" stroke="#6B4A3A" stroke-width="2"/><circle cx="156.3" cy="70.5" r="5.5" fill="#C8A8FF" stroke="#6B4A3A" stroke-width="2"/><circle cx="154.4" cy="76.2" r="3.5" fill="#FFD84D"/></svg>