<svg xmlns="http://www.w3.org/2000/svg" viewBox="0 -120 300 400" width="300" height="400"><circle cx="118.0" cy="173.0" r="2.6" fill="#FFCF5C" stroke="#6B4A3A" stroke-width="1.2"/><circle cx="124.4" cy="178.8" r="2.6" fill="#FFCF5C" stroke="#6B4A3A" stroke-width="1.2"/><circle cx="130.8" cy="183.2" r="2.6" fill="#FFCF5C" stroke="#6B4A3A" stroke-width="1.2"/><circle cx="137.2" cy="186.4" r="2.6" fill="#FFCF5C" stroke="#6B4A3A" stroke-width="1.2"/><circle cx="143.6" cy="188.4" r="2.6" fill="#FFCF5C" stroke="#6B4A3A" stroke-width="1.2"/><circle cx="150.0" cy="189.0" r="2.6" fill="#FFCF5C" stroke="#6B4A3A" stroke-width="1.2"/><circle cx="156.4" cy="188.4" r="2.6" fill="#FFCF5C" stroke="#6B4A3A" stroke-width="1.2"/><circle cx="162.8" cy="186.4" r="2.6" fill="#FFCF5C" stroke="#6B4A3A" stroke-width="1.2"/><circle cx="169.2" cy="183.2" r="2.6" fill="#FFCF5C" stroke="#6B4A3A" stroke-width="1.2"/><circle cx="175.6" cy="178.8" r="2.6" fill="#FFCF5C" stroke="#6B4A3A" stroke-width="1.2"/><circle cx="182.0" cy="173.0" r="2.6" fill="#FFCF5C" stroke="#6B4A3A" stroke-width="1.2"/><circle cx="150.0" cy="203.0" r="14" fill="#FFE07A" stroke="#6B4A3A" stroke-width="4"/><path d="M150.0 202.4 C 143.1 198.1 145.1 192.3 150.0 195.6 C 154.9 192.3 156.9 198.1 150.0 202.4 Z" fill="#6CC27A" stroke="#6B4A3A" stroke-width="1.8" stroke-linejoin="round" transform="rotate(0 150.0 197.5)"/><path d="M155.5 207.9 C 148.6 203.6 150.6 197.8 155.5 201.1 C 160.4 197.8 162.4 203.6 155.5 207.9 Z" fill="#6CC27A" stroke="#6B4A3A" stroke-width="1.8" stroke-linejoin="round" transform="rotate(90 155.5 203.0)"/><path d="M150.0 213.4 C 143.1 209.1 145.1 203.3 150.0 206.6 C 154.9 203.3 156.9 209.1 150.0 213.4 Z" fill="#6CC27A" stroke="#6B4A3A" stroke-width="1.8" stroke-linejoin="round" transform="rotate(180 150.0 208.5)"/><path d="M144.5 207.9 C 137.6 203.6 139.6 197.8 144.5 201.1 C 149.4 197.8 151.4 203.6 144.5 207.9 Z" fill="#6CC27A" stroke="#6B4A3A" stroke-width="1.8" stroke-linejoin="round" transform="rotate(270 144.5 203.0)"/><path d="M141.0 197.0 q 3 -5 8 -6" stroke="#FFFFFF" stroke-width="2.5" fill="none" stroke-linecap="round"/></svg>