<svg xmlns="http://www.w3.org/2000/svg" viewBox="0 -120 300 400" width="300" height="400"><circle cx="102.2" cy="186.0" r="6" fill="#FBF7F0" stroke="#6B4A3A" stroke-width="3"/><circle cx="100.1" cy="183.9" r="1.8" fill="#FFFFFF" opacity="0.8"/><circle cx="111.7" cy="191.8" r="6" fill="#FBF7F0" stroke="#6B4A3A" stroke-width="3"/><circle cx="109.6" cy="189.7" r="1.8" fill="#FFFFFF" opacity="0.8"/><circle cx="121.3" cy="196.2" r="6" fill="#FBF7F0" stroke="#6B4A3A" stroke-width="3"/><circle cx="119.2" cy="194.1" r="1.8" fill="#FFFFFF" opacity="0.8"/><circle cx="130.9" cy="199.4" r="6" fill="#FBF7F0" stroke="#6B4A3A" stroke-width="3"/><circle cx="128.8" cy="197.3" r="1.8" fill="#FFFFFF" opacity="0.8"/><circle cx="140.4" cy="201.4" r="6" fill="#FBF7F0" stroke="#6B4A3A" stroke-width="3"/><circle cx="138.3" cy="199.3" r="1.8" fill="#FFFFFF" opacity="0.8"/><circle cx="150.0" cy="202.0" r="6" fill="#FBF7F0" stroke="#6B4A3A" stroke-width="3"/><circle cx="147.9" cy="199.9" r="1.8" fill="#FFFFFF" opacity="0.8"/><circle cx="159.6" cy="201.4" r="6" fill="#FBF7F0" stroke="#6B4A3A" stroke-width="3"/><circle cx="157.5" cy="199.3" r="1.8" fill="#FFFFFF" opacity="0.8"/><circle cx="169.1" cy="199.4" r="6" fill="#FBF7F0" stroke="#6B4A3A" stroke-width="3"/><circle cx="167.0" cy="197.3" r="1.8" fill="#FFFFFF" opacity="0.8"/><circle cx="178.7" cy="196.2" r="6" fill="#FBF7F0" stroke="#6B4A3A" stroke-width="3"/><circle cx="176.6" cy="194.1" r="1.8" fill="#FFFFFF" opacity="0.8"/><circle cx="188.3" cy="191.8" r="6" fill="#FBF7F0" stroke="#6B4A3A" stroke-width="3"/><circle cx="186.2" cy="189.7" r="1.8" fill="#FFFFFF" opacity="0.8"/><circle cx="197.8" cy="186.0" r="6" fill="#FBF7F0" stroke="#6B4A3A" stroke-width="3"/><circle cx="195.7" cy="183.9" r="1.8" fill="#FFFFFF" opacity="0.8"/></svg>