<svg xmlns="http://www.w3.org/2000/svg" viewBox="0 -120 300 400" width="300" height="400"><path d="M108.0 79.5 C 67.5 73.5 67.5 37.5 87.5 23.5 C 83.5 47.5 97.5 57.5 118.5 63.5 Z" fill="#FFF4CC" stroke="#6B4A3A" stroke-width="4" stroke-linejoin="round"/><path d="M192.0 79.5 C 232.5 73.5 232.5 37.5 212.5 23.5 C 216.5 47.5 202.5 57.5 181.5 63.5 Z" fill="#FFF4CC" stroke="#6B4A3A" stroke-width="4" stroke-linejoin="round"/><path d="M97.5 97.5 C 97.5 35.5 202.5 35.5 202.5 97.5 Z" fill="#A9B4C2" stroke="#6B4A3A" stroke-width="4" stroke-linejoin="round"/><path d="M150.0 51.5 V 85.5" stroke="#D9961A" stroke-width="7"/><rect x="93.5" y="85.5" width="113.0" height="16" rx="8" fill="#D9961A" stroke="#6B4A3A" stroke-width="4"/><circle cx="115.4" cy="93.5" r="2.5" fill="#FFF0C2"/><circle cx="132.7" cy="93.5" r="2.5" fill="#FFF0C2"/><circle cx="150.0" cy="93.5" r="2.5" fill="#FFF0C2"/><circle cx="167.3" cy="93.5" r="2.5" fill="#FFF0C2"/><circle cx="184.6" cy="93.5" r="2.5" fill="#FFF0C2"/></svg>