<svg xmlns="http://www.w3.org/2000/svg" viewBox="0 -120 300 400" width="300" height="400"><path d="M62.0 130.0 A 88.0 76.0 0 1 1 238.0 130.0 A 88.0 76.0 0 1 1 62.0 130.0 Z M92.4 142.0 A 57.6 44.4 0 1 0 207.6 142.0 A 57.6 44.4 0 1 0 92.4 142.0 Z" fill="#7FCF86" fill-rule="evenodd" stroke="#6B4A3A" stroke-width="4"/><ellipse cx="150.0" cy="142.0" rx="57.6" ry="44.4" fill="none" stroke="#B9E9BE" stroke-width="5"/><circle cx="119.8" cy="62.0" r="20" fill="#7FCF86" stroke="#6B4A3A" stroke-width="4"/><circle cx="119.8" cy="60.0" r="11" fill="#FFFFFF" stroke="#6B4A3A" stroke-width="3"/><circle cx="121.8" cy="61.0" r="5.5" fill="#2B2330"/><circle cx="180.2" cy="62.0" r="20" fill="#7FCF86" stroke="#6B4A3A" stroke-width="4"/><circle cx="180.2" cy="60.0" r="11" fill="#FFFFFF" stroke="#6B4A3A" stroke-width="3"/><circle cx="182.2" cy="61.0" r="5.5" fill="#2B2330"/><ellipse cx="74.0" cy="160.0" rx="9" ry="6" fill="#F59C9C" opacity="0.6"/><ellipse cx="226.0" cy="160.0" rx="9" ry="6" fill="#F59C9C" opacity="0.6"/></svg>