<svg xmlns="http://www.w3.org/2000/svg" viewBox="0 -120 300 400" width="300" height="400"><path d="M94.0 184.0 A 68.0 64.0 0 1 1 230.0 184.0 A 68.0 64.0 0 1 1 94.0 184.0 Z M120.4 196.0 A 41.6 35.5 0 1 0 203.6 196.0 A 41.6 35.5 0 1 0 120.4 196.0 Z" fill="#7FCF86" fill-rule="evenodd" stroke="#6B4A3A" stroke-width="4"/><ellipse cx="162.0" cy="196.0" rx="41.6" ry="35.5" fill="none" stroke="#B9E9BE" stroke-width="5"/><circle cx="140.2" cy="128.0" r="20" fill="#7FCF86" stroke="#6B4A3A" stroke-width="4"/><circle cx="140.2" cy="126.0" r="11" fill="#FFFFFF" stroke="#6B4A3A" stroke-width="3"/><circle cx="142.2" cy="127.0" r="5.5" fill="#2B2330"/><circle cx="183.8" cy="128.0" r="20" fill="#7FCF86" stroke="#6B4A3A" stroke-width="4"/><circle cx="183.8" cy="126.0" r="11" fill="#FFFFFF" stroke="#6B4A3A" stroke-width="3"/><circle cx="185.8" cy="127.0" r="5.5" fill="#2B2330"/><ellipse cx="106.0" cy="214.0" rx="9" ry="6" fill="#F59C9C" opacity="0.6"/><ellipse cx="218.0" cy="214.0" rx="9" ry="6" fill="#F59C9C" opacity="0.6"/></svg>